HIERARCHY
ROOT hip
{
  OFFSET 0 0 0
  CHANNELS 6 Xposition Yposition Zposition Zrotation Yrotation Xrotation
  JOINT abdomen
  {
    OFFSET 0 20.6881 -0.73152
    CHANNELS 3 Zrotation Xrotation Yrotation
    JOINT chest
    {
      OFFSET 0 11.7043 -0.48768
      CHANNELS 3 Zrotation Xrotation Yrotation
      JOINT neck
      {
        OFFSET 0 22.1894 -2.19456
        CHANNELS 3 Zrotation Xrotation Yrotation
        JOINT head
        {
          OFFSET -0.24384 7.07133 1.2192
          CHANNELS 3 Zrotation Xrotation Yrotation
          JOINT leftEye
          {
            OFFSET 4.14528 8.04674 8.04672
            CHANNELS 3 Zrotation Xrotation Yrotation
            End Site
            {
              OFFSET 1 0 0
            }
          }
          JOINT rightEye
          {
            OFFSET -3.6576 8.04674 8.04672
            CHANNELS 3 Zrotation Xrotation Yrotation
            End Site
            {
              OFFSET 1 0 0
            }
          }
        }
      }
      JOINT rCollar
      {
        OFFSET -2.68224 19.2634 -4.8768
        CHANNELS 3 Zrotation Xrotation Yrotation
        JOINT rShldr
        {
          OFFSET -8.77824 -1.95073 1.46304
          CHANNELS 3 Zrotation Xrotation Yrotation
          JOINT rForeArm
          {
            OFFSET -28.1742 -1.7115 0.48768
            CHANNELS 3 Zrotation Xrotation Yrotation
            JOINT rHand
            {
              OFFSET -22.5879 0.773209 7.07136
              CHANNELS 3 Zrotation Xrotation Yrotation
              JOINT rThumb1
              {
                OFFSET -1.2192 -0.487915 3.41376
                CHANNELS 3 Zrotation Xrotation Yrotation
                JOINT rThumb2
                {
                  OFFSET -3.37035 -0.52449 3.41376
                  CHANNELS 3 Zrotation Xrotation Yrotation
                  End Site
                  {
                    OFFSET -1.78271 -1.18214 1.43049
                  }
                }
              }
              JOINT rIndex1
              {
                OFFSET -7.75947 0.938293 5.60832
                CHANNELS 3 Zrotation Xrotation Yrotation
                JOINT rIndex2
                {
                  OFFSET -2.54057 -0.884171 1.56538
                  CHANNELS 3 Zrotation Xrotation Yrotation
                  End Site
                  {
                    OFFSET -1.62519 -0.234802 1.16502
                  }
                }
              }
              JOINT rMid1
              {
                OFFSET -8.24714 1.18213 3.41376
                CHANNELS 3 Zrotation Xrotation Yrotation
                JOINT rMid2
                {
                  OFFSET -3.10165 -0.590103 1.0647
                  CHANNELS 3 Zrotation Xrotation Yrotation
                  End Site
                  {
                    OFFSET -2.48547 -0.328903 0.83742
                  }
                }
              }
              JOINT rRing1
              {
                OFFSET -8.82822 0.546677 1.51678
                CHANNELS 3 Zrotation Xrotation Yrotation
                JOINT rRing2
                {
                  OFFSET -2.60934 -0.819778 -0.0198488
                  CHANNELS 3 Zrotation Xrotation Yrotation
                  End Site
                  {
                    OFFSET -2.33842 -0.294052 0.168128
                  }
                }
              }
              JOINT rPinky1
              {
                OFFSET -8.27202 -0.0477905 -0.4584
                CHANNELS 3 Zrotation Xrotation Yrotation
                JOINT rPinky2
                {
                  OFFSET -1.82734 -0.647385 -0.700984
                  CHANNELS 3 Zrotation Xrotation Yrotation
                  End Site
                  {
                    OFFSET -1.69225 -0.51767 -0.607171
                  }
                }
              }
            }
          }
        }
      }
      JOINT lCollar
      {
        OFFSET 2.68224 19.2634 -4.8768
        CHANNELS 3 Zrotation Xrotation Yrotation
        JOINT lShldr
        {
          OFFSET 8.77824 -1.95073 1.46304
          CHANNELS 3 Zrotation Xrotation Yrotation
          JOINT lForeArm
          {
            OFFSET 28.1742 -1.7115 0.48768
            CHANNELS 3 Zrotation Xrotation Yrotation
            JOINT lHand
            {
              OFFSET 22.5879 0.773209 7.07136
              CHANNELS 3 Zrotation Xrotation Yrotation
              JOINT lThumb1
              {
                OFFSET 1.2192 -0.487915 3.41376
                CHANNELS 3 Zrotation Xrotation Yrotation
                JOINT lThumb2
                {
                  OFFSET 3.37035 -0.52449 3.41376
                  CHANNELS 3 Zrotation Xrotation Yrotation
                  End Site
                  {
                    OFFSET 1.78271 -1.18214 1.43049
                  }
                }
              }
              JOINT lIndex1
              {
                OFFSET 7.75947 0.938293 5.60832
                CHANNELS 3 Zrotation Xrotation Yrotation
                JOINT lIndex2
                {
                  OFFSET 2.54057 -0.884171 1.56538
                  CHANNELS 3 Zrotation Xrotation Yrotation
                  End Site
                  {
                    OFFSET 1.62519 -0.234802 1.16502
                  }
                }
              }
              JOINT lMid1
              {
                OFFSET 8.24714 1.18213 3.41376
                CHANNELS 3 Zrotation Xrotation Yrotation
                JOINT lMid2
                {
                  OFFSET 3.10165 -0.590103 1.0647
                  CHANNELS 3 Zrotation Xrotation Yrotation
                  End Site
                  {
                    OFFSET 2.48547 -0.328903 0.83742
                  }
                }
              }
              JOINT lRing1
              {
                OFFSET 8.82822 0.546677 1.51678
                CHANNELS 3 Zrotation Xrotation Yrotation
                JOINT lRing2
                {
                  OFFSET 2.60934 -0.819778 -0.0198488
                  CHANNELS 3 Zrotation Xrotation Yrotation
                  End Site
                  {
                    OFFSET 2.33842 -0.294052 0.168128
                  }
                }
              }
              JOINT lPinky1
              {
                OFFSET 8.27202 -0.0477905 -0.4584
                CHANNELS 3 Zrotation Xrotation Yrotation
                JOINT lPinky2
                {
                  OFFSET 1.82734 -0.647385 -0.700984
                  CHANNELS 3 Zrotation Xrotation Yrotation
                  End Site
                  {
                    OFFSET 1.69225 -0.51767 -0.607171
                  }
                }
              }
            }
          }
        }
      }
    }
  }
  JOINT rButtock
  {
    OFFSET -8.77824 4.35084 1.2192
    CHANNELS 3 Zrotation Xrotation Yrotation
    JOINT rThigh
    {
      OFFSET 0 -1.70687 -2.19456
      CHANNELS 3 Zrotation Xrotation Yrotation
      JOINT rShin
      {
        OFFSET 0 -36.8199 0.73152
        CHANNELS 3 Zrotation Xrotation Yrotation
        JOINT rFoot
        {
          OFFSET 0.73152 -45.1104 -5.12064
          CHANNELS 3 Zrotation Xrotation Yrotation
          End Site
          {
            OFFSET -1.1221 -3.69964 12.103
          }
        }
      }
    }
  }
  JOINT lButtock
  {
    OFFSET 8.77824 4.35084 1.2192
    CHANNELS 3 Zrotation Xrotation Yrotation
    JOINT lThigh
    {
      OFFSET 0 -1.70687 -2.19456
      CHANNELS 3 Zrotation Xrotation Yrotation
      JOINT lShin
      {
        OFFSET 0 -36.8199 0.73152
        CHANNELS 3 Zrotation Xrotation Yrotation
        JOINT lFoot
        {
          OFFSET -0.73152 -45.1104 -5.12064
          CHANNELS 3 Zrotation Xrotation Yrotation
          End Site
          {
            OFFSET 1.1221 -3.69964 12.103
          }
        }
      }
    }
  }
}
MOTION
Frames:	8
Frame Time:	0.00833333
3.17913 69.3986 -28.3433 5.4211 17.9367 56.7354 11.1813 45.8865 12.9678 2.7614 0.964145 4.69885 -3.85366 0.92474 -10.7562 -9.58728 -20.5399 -22.7195 -0.0 0.0 0.0 -0.0 0.0 0.0 -6.62616e-13 1.92452e-13 -2.52551e-13 38.2073 -33.8214 72.5304 -11.8198 -5.32307 21.2615 -0.00792985 -2.56318 -0.360468 -9.2393e-10 -4.95687e-11 9.4749e-10 -1.59561e-09 -8.60035e-11 1.63615e-09 -9.23928e-10 -4.95723e-11 9.47462e-10 7.73091 5.47488 0.417314 -9.23931e-10 -4.95752e-11 9.47479e-10 2.90554 0.965183 0.102902 -9.23927e-10 -4.95737e-11 9.47482e-10 10.2786 0.731801 0.0259123 -9.23929e-10 -4.95716e-11 9.4748e-10 2.22167 -0.733487 -0.20892 -6.62688e-13 1.92445e-13 -2.52796e-13 -6.37816 63.1225 -61.6276 28.2275 -32.2032 -70.778 1.00914 27.2838 -4.15684 1.69356e-09 -3.06333e-10 2.57603e-10 2.92311e-09 -5.28347e-10 4.14854e-10 1.69356e-09 -3.06323e-10 2.5761e-10 -7.73091 5.47488 -0.417314 1.69356e-09 -3.06333e-10 2.57595e-10 -2.90554 0.965183 -0.102902 1.69356e-09 -3.06329e-10 2.57602e-10 -10.2786 0.731801 -0.0259123 1.69358e-09 -3.06329e-10 2.57597e-10 -2.22167 -0.733487 0.20892 -2.03217e-16 0.0 -3.88251e-19 -113.488 -58.9976 -127.075 -2.00239 70.3407 2.75436 -2.76778 -12.1726 -9.1359 2.03217e-16 0.0 3.88251e-19 175.789 -70.9998 -172.647 0.933181 58.0721 -1.41207 -1.69005 1.30097 -22.9342
3.27965 69.3739 -28.3023 5.5317 18.0173 57.0624 11.2387 45.7564 12.9179 2.75366 0.956006 4.68905 -3.83134 0.989648 -10.7602 -9.64637 -20.6965 -22.7728 -0.0 0.0 0.0 -0.0 0.0 0.0 -3.61377e-13 1.04359e-13 -4.63479e-14 38.4138 -33.8832 72.6934 -11.7828 -5.29754 21.1901 -0.00634241 -2.30951 -0.32475 -3.06699e-10 1.0016e-10 -2.87393e-10 -5.29614e-10 1.72123e-10 -4.97275e-10 -3.06697e-10 1.00159e-10 -2.87423e-10 7.73091 5.47488 0.417314 -3.06696e-10 1.00154e-10 -2.87401e-10 2.90554 0.965183 0.102902 -3.06696e-10 1.00158e-10 -2.87399e-10 10.2786 0.731801 0.0259123 -3.067e-10 1.00161e-10 -2.87398e-10 2.22167 -0.733487 -0.20892 -3.61428e-13 1.04365e-13 -4.65933e-14 -6.3831 63.175 -61.581 28.2429 -32.3336 -70.9858 0.967119 26.7696 -4.06528 -1.65245e-10 -7.24125e-10 9.93559e-10 -2.72933e-10 -1.26008e-09 1.71932e-09 -1.65248e-10 -7.24115e-10 9.93566e-10 -7.73091 5.47488 -0.417314 -1.65244e-10 -7.24124e-10 9.93554e-10 -2.90554 0.965183 -0.102902 -1.65251e-10 -7.24121e-10 9.93557e-10 -10.2786 0.731801 -0.0259123 -1.65238e-10 -7.24122e-10 9.93546e-10 -2.22167 -0.733487 0.20892 -2.03217e-16 0.0 -3.88251e-19 -113.675 -58.8774 -127.255 -2.00082 70.3368 2.75572 -2.82708 -12.2325 -9.2916 2.03217e-16 0.0 3.88251e-19 176.081 -70.784 -172.306 0.937568 58.1416 -1.41426 -1.7144 1.24871 -22.9221
3.36233 69.4251 -28.191 5.601 17.9633 57.1863 11.2988 45.6309 12.8649 2.74673 0.946731 4.67895 -3.7967 1.06972 -10.7615 -9.72302 -20.8612 -22.8288 -0.0 0.0 0.0 -0.0 0.0 0.0 -5.16386e-14 2.2925e-14 1.64145e-13 38.6399 -33.93 72.864 -11.7414 -5.26902 21.1105 -0.00513446 -2.06829 -0.290801 3.5536e-10 2.74384e-10 -1.59097e-09 6.13827e-10 4.72681e-10 -2.74942e-09 3.55361e-10 2.74385e-10 -1.591e-09 7.73091 5.47488 0.417314 3.55365e-10 2.74378e-10 -1.59097e-09 2.90554 0.965183 0.102902 3.55363e-10 2.74386e-10 -1.59097e-09 10.2786 0.731801 0.0259123 3.55356e-10 2.74389e-10 -1.59097e-09 2.22167 -0.733487 -0.20892 -5.16708e-14 2.29449e-14 1.63898e-13 -6.43636 63.2249 -61.4958 28.2576 -32.468 -71.2044 0.918491 26.1471 -3.95593 -2.13816e-09 -1.08063e-09 1.70556e-09 -3.66629e-09 -1.88645e-09 2.98459e-09 -2.13816e-09 -1.08062e-09 1.70556e-09 -7.73091 5.47488 -0.417314 -2.13816e-09 -1.08062e-09 1.70555e-09 -2.90554 0.965183 -0.102902 -2.13817e-09 -1.08062e-09 1.70555e-09 -10.2786 0.731801 -0.0259123 -2.13816e-09 -1.08062e-09 1.70554e-09 -2.22167 -0.733487 0.20892 -2.03217e-16 0.0 -3.88251e-19 -113.831 -58.7786 -127.406 -1.99737 70.32 2.75506 -2.89131 -12.2971 -9.45904 2.03217e-16 0.0 3.88251e-19 176.362 -70.5894 -171.988 0.941155 58.1969 -1.41568 -1.73588 1.20017 -22.9022
3.43877 69.3167 -28.3037 5.7936 18.2774 58.0871 11.3357 45.5352 12.8488 2.74752 0.940993 4.67622 -3.74349 1.15168 -10.7633 -9.80711 -21.0124 -22.8904 -0.0 0.0 0.0 -0.0 0.0 0.0 1.35587e-13 -6.37353e-15 2.92064e-13 38.8638 -33.971 73.022 -11.712 -5.24871 21.0538 -0.00463338 -1.9432 -0.273204 8.46037e-10 4.04608e-10 -2.50231e-09 1.46123e-09 6.97505e-10 -4.32391e-09 8.46038e-10 4.04609e-10 -2.50234e-09 7.73091 5.47488 0.417314 8.46044e-10 4.04602e-10 -2.50231e-09 2.90554 0.965183 0.102902 8.4604e-10 4.04611e-10 -2.50231e-09 10.2786 0.731801 0.0259123 8.46031e-10 4.04615e-10 -2.5023e-09 2.22167 -0.733487 -0.20892 1.35564e-13 -6.3483e-15 2.91816e-13 -6.46433 63.2653 -61.4477 28.2667 -32.5588 -71.3554 0.881167 25.6488 -3.86944 -3.59238e-09 -1.21189e-09 2.14973e-09 -6.16899e-09 -2.12138e-09 3.77825e-09 -3.59238e-09 -1.21188e-09 2.14974e-09 -7.73091 5.47488 -0.417314 -3.59238e-09 -1.21188e-09 2.14973e-09 -2.90554 0.965183 -0.102902 -3.59239e-09 -1.21188e-09 2.14972e-09 -10.2786 0.731801 -0.0259123 -3.59238e-09 -1.21189e-09 2.14971e-09 -2.22167 -0.733487 0.20892 -2.03217e-16 0.0 -3.88251e-19 -113.933 -58.7363 -127.513 -1.99095 70.281 2.75052 -2.9521 -12.3524 -9.61884 2.03217e-16 0.0 3.88251e-19 176.561 -70.446 -171.784 0.94307 58.223 -1.41546 -1.7555 1.15317 -22.8846
3.41789 69.4056 -28.1651 5.423 18.1641 57.9796 11.3433 45.4856 12.8982 2.76207 0.937166 4.68771 -3.65838 1.26548 -10.7682 -9.91394 -21.1614 -22.9711 -0.0 0.0 0.0 -0.0 0.0 0.0 1.35246e-13 5.46072e-14 2.92786e-13 39.071 -34.0033 73.1447 -11.7025 -5.24215 21.0356 -0.00489306 -2.00037 -0.281248 1.18743e-09 4.50791e-10 -2.9011e-09 2.0508e-09 7.77566e-10 -5.01288e-09 1.18743e-09 4.50791e-10 -2.90113e-09 7.73091 5.47488 0.417314 1.18743e-09 4.50785e-10 -2.9011e-09 2.90554 0.965183 0.102902 1.18743e-09 4.50793e-10 -2.9011e-09 10.2786 0.731801 0.0259123 1.18742e-09 4.50796e-10 -2.90109e-09 2.22167 -0.733487 -0.20892 1.35212e-13 5.46253e-14 2.92539e-13 -6.44905 63.3061 -61.4677 28.2691 -32.5898 -71.4113 0.85581 25.3056 -3.81019 -4.49372e-09 -9.40513e-10 2.2094e-09 -7.72419e-09 -1.65886e-09 3.8987e-09 -4.49372e-09 -9.40505e-10 2.2094e-09 -7.73091 5.47488 -0.417314 -4.49372e-09 -9.4051e-10 2.20939e-09 -2.90554 0.965183 -0.102902 -4.49373e-09 -9.4051e-10 2.20939e-09 -10.2786 0.731801 -0.0259123 -4.49372e-09 -9.40512e-10 2.20937e-09 -2.22167 -0.733487 0.20892 -2.03217e-16 0.0 -3.88251e-19 -113.94 -58.7858 -127.551 -1.98045 70.2109 2.74051 -3.00742 -12.397 -9.76582 2.03217e-16 0.0 3.88251e-19 176.63 -70.3806 -171.764 0.942869 58.2114 -1.41296 -1.7758 1.10058 -22.8695
3.47907 69.396 -28.167 5.5967 18.3316 58.4509 11.3354 45.4655 12.9854 2.78531 0.933716 4.70772 -3.54859 1.40701 -10.774 -10.0431 -21.3139 -23.0652 -0.0 0.0 0.0 -0.0 0.0 0.0 2.72496e-14 1.72941e-13 2.19791e-13 39.2757 -34.0241 73.2483 -11.7031 -5.24254 21.0368 -0.00571548 -2.17167 -0.305354 1.46825e-09 4.56722e-10 -3.03231e-09 2.5358e-09 7.88391e-10 -5.23957e-09 1.46826e-09 4.56719e-10 -3.03232e-09 7.73091 5.47488 0.417314 1.46826e-09 4.56716e-10 -3.03231e-09 2.90554 0.965183 0.102902 1.46825e-09 4.56721e-10 -3.03231e-09 10.2786 0.731801 0.0259123 1.46824e-09 4.56723e-10 -3.0323e-09 2.22167 -0.733487 -0.20892 2.71943e-14 1.72944e-13 2.19545e-13 -6.42903 63.3471 -61.5119 28.2678 -32.5882 -71.4152 0.833673 25.0038 -3.75828 -5.13482e-09 -3.98502e-10 2.03184e-09 -8.83438e-09 -7.28029e-10 3.60532e-09 -5.13482e-09 -3.98499e-10 2.03185e-09 -7.73091 5.47488 -0.417314 -5.13482e-09 -3.985e-10 2.03184e-09 -2.90554 0.965183 -0.102902 -5.13482e-09 -3.98502e-10 2.03184e-09 -10.2786 0.731801 -0.0259123 -5.13481e-09 -3.98502e-10 2.03182e-09 -2.22167 -0.733487 0.20892 -2.03217e-16 0.0 -3.88251e-19 -113.878 -58.9001 -127.537 -1.96683 70.117 2.7265 -3.0616 -12.4377 -9.9103 2.03217e-16 0.0 3.88251e-19 176.622 -70.3711 -171.862 0.941091 58.1715 -1.40879 -1.79547 1.04573 -22.8524
3.51083 69.4762 -28.0913 5.5842 18.3803 58.5437 11.3159 45.4507 13.0665 2.80743 0.93545 4.72514 -3.43864 1.51202 -10.7765 -10.1604 -21.4402 -23.1463 -0.0 0.0 0.0 -0.0 0.0 0.0 -1.01962e-13 2.87498e-13 1.33372e-13 39.4997 -34.0424 73.3716 -11.7031 -5.24257 21.0368 -0.00677793 -2.35943 -0.331783 1.57227e-09 4.79652e-10 -2.98292e-09 2.71531e-09 8.28652e-10 -5.15423e-09 1.57227e-09 4.79645e-10 -2.98292e-09 7.73091 5.47488 0.417314 1.57227e-09 4.79645e-10 -2.98292e-09 2.90554 0.965183 0.102902 1.57227e-09 4.79647e-10 -2.98291e-09 10.2786 0.731801 0.0259123 1.57226e-09 4.79648e-10 -2.9829e-09 2.22167 -0.733487 -0.20892 -1.02039e-13 2.87486e-13 1.33127e-13 -6.41523 63.3662 -61.544 28.2653 -32.5721 -71.3944 0.815964 24.7595 -3.71642 -5.37312e-09 1.1401e-10 1.76913e-09 -9.2506e-09 1.54431e-10 3.15716e-09 -5.37312e-09 1.14011e-10 1.76913e-09 -7.73091 5.47488 -0.417314 -5.37312e-09 1.14011e-10 1.76912e-09 -2.90554 0.965183 -0.102902 -5.37312e-09 1.14009e-10 1.76912e-09 -10.2786 0.731801 -0.0259123 -5.37311e-09 1.1401e-10 1.76911e-09 -2.22167 -0.733487 0.20892 -2.03217e-16 0.0 -3.88251e-19 -113.817 -59.0201 -127.514 -1.95207 70.0137 2.71114 -3.11558 -12.4725 -10.0561 2.03217e-16 0.0 3.88251e-19 176.613 -70.3749 -171.957 0.938342 58.1155 -1.40394 -1.80979 1.00219 -22.836
3.54653 69.5796 -27.9913 5.544 18.4045 58.5105 11.2891 45.4172 13.0971 2.81861 0.947176 4.72884 -3.35309 1.51622 -10.7714 -10.2314 -21.511 -23.1876 -0.0 0.0 0.0 -0.0 0.0 0.0 -1.65947e-13 3.37149e-13 9.38264e-14 39.7648 -34.0668 73.553 -11.692 -5.23493 21.0152 -0.00746376 -2.46595 -0.346783 1.38321e-09 5.76829e-10 -2.83991e-09 2.3884e-09 9.97024e-10 -4.90712e-09 1.38322e-09 5.76821e-10 -2.83991e-09 7.73091 5.47488 0.417314 1.38321e-09 5.76823e-10 -2.83991e-09 2.90554 0.965183 0.102902 1.38321e-09 5.76823e-10 -2.83991e-09 10.2786 0.731801 0.0259123 1.3832e-09 5.76822e-10 -2.83989e-09 2.22167 -0.733487 -0.20892 -1.66034e-13 3.37128e-13 9.35779e-14 -6.41883 63.3414 -61.5277 28.2636 -32.5595 -71.3761 0.803843 24.5887 -3.68729 -5.06607e-09 2.96892e-10 1.57333e-09 -8.72391e-09 4.71854e-10 2.81325e-09 -5.06608e-09 2.9689e-10 1.57333e-09 -7.73091 5.47488 -0.417314 -5.06607e-09 2.96892e-10 1.57332e-09 -2.90554 0.965183 -0.102902 -5.06608e-09 2.96889e-10 1.57333e-09 -10.2786 0.731801 -0.0259123 -5.06607e-09 2.96891e-10 1.57332e-09 -2.22167 -0.733487 0.20892 -2.03217e-16 0.0 -3.88251e-19 -113.827 -59.0865 -127.528 -1.93805 69.9158 2.69702 -3.17032 -12.4997 -10.2071 2.03217e-16 0.0 3.88251e-19 176.679 -70.3495 -171.93 0.935216 58.0551 -1.3994 -1.81408 0.983526 -22.8228
